<?xml version="1.0" encoding="UTF-8" standalone="no"?>
<!DOCTYPE svg PUBLIC "-//W3C//DTD SVG 1.1//EN"
 "http://www.w3.org/Graphics/SVG/1.1/DTD/svg11.dtd">
<!-- Generated by graphviz version 2.38.0 (20140413.2041)
 -->
<!-- Title: controllers_diagram Pages: 1 -->
<svg width="358pt" height="228pt"
 viewBox="0.00 0.00 358.00 228.00" xmlns="http://www.w3.org/2000/svg" xmlns:xlink="http://www.w3.org/1999/xlink">
<g id="graph0" class="graph" transform="scale(1 1) rotate(0) translate(102 168)">
<title>controllers_diagram</title>
<polygon fill="none" stroke="none" points="-102,60 -102,-168 256,-168 256,60 -102,60"/>
<!-- _diagram_info -->
<g id="node1" class="node"><title>_diagram_info</title>
<text text-anchor="start" x="78" y="-119.6" font-family="Times,serif" font-size="13.00">Controllers diagram</text>
<text text-anchor="start" x="78" y="-105.6" font-family="Times,serif" font-size="13.00">Date: Oct 12 2017 &#45; 13:03</text>
<text text-anchor="start" x="78" y="-91.6" font-family="Times,serif" font-size="13.00">Generated by RailRoady 1.5.3</text>
<text text-anchor="start" x="78" y="-77.6" font-family="Times,serif" font-size="13.00">http://railroady.prestonlee.com</text>
</g>
<!-- HomeController -->
<g id="node2" class="node"><title>HomeController</title>
<path fill="none" stroke="black" d="M-58,-70.5C-58,-70.5 24,-70.5 24,-70.5 30,-70.5 36,-76.5 36,-82.5 36,-82.5 36,-151.5 36,-151.5 36,-157.5 30,-163.5 24,-163.5 24,-163.5 -58,-163.5 -58,-163.5 -64,-163.5 -70,-157.5 -70,-151.5 -70,-151.5 -70,-82.5 -70,-82.5 -70,-76.5 -64,-70.5 -58,-70.5"/>
<text text-anchor="middle" x="-17" y="-148.3" font-family="Times,serif" font-size="14.00">HomeController</text>
<polyline fill="none" stroke="black" points="-70,-140.5 36,-140.5 "/>
<text text-anchor="start" x="-62" y="-125.3" font-family="Times,serif" font-size="14.00">index</text>
<polyline fill="none" stroke="black" points="-70,-117.5 36,-117.5 "/>
<polyline fill="none" stroke="black" points="-70,-93.5 36,-93.5 "/>
<text text-anchor="start" x="-62" y="-78.3" font-family="Times,serif" font-size="14.00">_layout</text>
</g>
<!-- ApplicationController -->
<g id="node3" class="node"><title>ApplicationController</title>
<path fill="none" stroke="black" d="M-86,55.5C-86,55.5 84,55.5 84,55.5 90,55.5 96,49.5 96,43.5 96,43.5 96,-25.5 96,-25.5 96,-31.5 90,-37.5 84,-37.5 84,-37.5 -86,-37.5 -86,-37.5 -92,-37.5 -98,-31.5 -98,-25.5 -98,-25.5 -98,43.5 -98,43.5 -98,49.5 -92,55.5 -86,55.5"/>
<text text-anchor="middle" x="-1" y="-22.3" font-family="Times,serif" font-size="14.00">ApplicationController</text>
<polyline fill="none" stroke="black" points="-98,-14.5 96,-14.5 "/>
<polyline fill="none" stroke="black" points="-98,9.5 96,9.5 "/>
<text text-anchor="start" x="-90" y="24.7" font-family="Times,serif" font-size="14.00">configure_permitted_parameters</text>
<polyline fill="none" stroke="black" points="-98,32.5 96,32.5 "/>
<text text-anchor="start" x="-90" y="47.7" font-family="Times,serif" font-size="14.00">_layout</text>
</g>
</g>
</svg>
