<?xml version="1.0" encoding="UTF-8" standalone="no"?>
<!DOCTYPE svg PUBLIC "-//W3C//DTD SVG 1.1//EN"
 "http://www.w3.org/Graphics/SVG/1.1/DTD/svg11.dtd">
<!-- Generated by graphviz version 2.38.0 (20140413.2041)
 -->
<!-- Title: models_diagram Pages: 1 -->
<svg width="1140pt" height="310pt"
 viewBox="0.00 0.00 1140.00 310.00" xmlns="http://www.w3.org/2000/svg" xmlns:xlink="http://www.w3.org/1999/xlink">
<g id="graph0" class="graph" transform="scale(1 1) rotate(0) translate(4 306)">
<title>models_diagram</title>
<polygon fill="none" stroke="none" points="-4,4 -4,-306 1136,-306 1136,4 -4,4"/>
<!-- _diagram_info -->
<g id="node1" class="node"><title>_diagram_info</title>
<text text-anchor="start" x="8" y="-168.6" font-family="Times,serif" font-size="13.00">Models diagram</text>
<text text-anchor="start" x="8" y="-154.6" font-family="Times,serif" font-size="13.00">Date: Oct 12 2017 &#45; 13:03</text>
<text text-anchor="start" x="8" y="-140.6" font-family="Times,serif" font-size="13.00">Generated by RailRoady 1.5.3</text>
<text text-anchor="start" x="8" y="-126.6" font-family="Times,serif" font-size="13.00">http://railroady.prestonlee.com</text>
</g>
<!-- Content -->
<g id="node2" class="node"><title>Content</title>
<path fill="none" stroke="black" d="M212,-90.5C212,-90.5 320,-90.5 320,-90.5 326,-90.5 332,-96.5 332,-102.5 332,-102.5 332,-199.5 332,-199.5 332,-205.5 326,-211.5 320,-211.5 320,-211.5 212,-211.5 212,-211.5 206,-211.5 200,-205.5 200,-199.5 200,-199.5 200,-102.5 200,-102.5 200,-96.5 206,-90.5 212,-90.5"/>
<text text-anchor="middle" x="266" y="-196.3" font-family="Times,serif" font-size="14.00">Content</text>
<polyline fill="none" stroke="black" points="200,-188.5 332,-188.5 "/>
<text text-anchor="start" x="208" y="-173.3" font-family="Times,serif" font-size="14.00">_id :BSON::ObjectId</text>
<text text-anchor="start" x="208" y="-158.3" font-family="Times,serif" font-size="14.00">category :String</text>
<text text-anchor="start" x="208" y="-143.3" font-family="Times,serif" font-size="14.00">name :String</text>
<text text-anchor="start" x="208" y="-128.3" font-family="Times,serif" font-size="14.00">url :String</text>
<text text-anchor="start" x="208" y="-113.3" font-family="Times,serif" font-size="14.00">view_limit :Integer</text>
<text text-anchor="start" x="208" y="-98.3" font-family="Times,serif" font-size="14.00">view_span :Integer</text>
</g>
<!-- UserContent -->
<g id="node3" class="node"><title>UserContent</title>
<path fill="none" stroke="black" d="M362,-105.5C362,-105.5 470,-105.5 470,-105.5 476,-105.5 482,-111.5 482,-117.5 482,-117.5 482,-184.5 482,-184.5 482,-190.5 476,-196.5 470,-196.5 470,-196.5 362,-196.5 362,-196.5 356,-196.5 350,-190.5 350,-184.5 350,-184.5 350,-117.5 350,-117.5 350,-111.5 356,-105.5 362,-105.5"/>
<text text-anchor="middle" x="416" y="-181.3" font-family="Times,serif" font-size="14.00">UserContent</text>
<polyline fill="none" stroke="black" points="350,-173.5 482,-173.5 "/>
<text text-anchor="start" x="358" y="-158.3" font-family="Times,serif" font-size="14.00">_id :BSON::ObjectId</text>
<text text-anchor="start" x="358" y="-143.3" font-family="Times,serif" font-size="14.00">content_id :Object</text>
<text text-anchor="start" x="358" y="-128.3" font-family="Times,serif" font-size="14.00">user_id :Object</text>
<text text-anchor="start" x="358" y="-113.3" font-family="Times,serif" font-size="14.00">view_count :Integer</text>
</g>
<!-- Role -->
<g id="node4" class="node"><title>Role</title>
<path fill="none" stroke="black" d="M512,-120.5C512,-120.5 620,-120.5 620,-120.5 626,-120.5 632,-126.5 632,-132.5 632,-132.5 632,-169.5 632,-169.5 632,-175.5 626,-181.5 620,-181.5 620,-181.5 512,-181.5 512,-181.5 506,-181.5 500,-175.5 500,-169.5 500,-169.5 500,-132.5 500,-132.5 500,-126.5 506,-120.5 512,-120.5"/>
<text text-anchor="middle" x="566" y="-166.3" font-family="Times,serif" font-size="14.00">Role</text>
<polyline fill="none" stroke="black" points="500,-158.5 632,-158.5 "/>
<text text-anchor="start" x="508" y="-143.3" font-family="Times,serif" font-size="14.00">_id :BSON::ObjectId</text>
<text text-anchor="start" x="508" y="-128.3" font-family="Times,serif" font-size="14.00">name :String</text>
</g>
<!-- Video -->
<g id="node5" class="node"><title>Video</title>
<path fill="none" stroke="black" d="M662,-83C662,-83 770,-83 770,-83 776,-83 782,-89 782,-95 782,-95 782,-207 782,-207 782,-213 776,-219 770,-219 770,-219 662,-219 662,-219 656,-219 650,-213 650,-207 650,-207 650,-95 650,-95 650,-89 656,-83 662,-83"/>
<text text-anchor="middle" x="716" y="-203.8" font-family="Times,serif" font-size="14.00">Video</text>
<polyline fill="none" stroke="black" points="650,-196 782,-196 "/>
<text text-anchor="start" x="658" y="-180.8" font-family="Times,serif" font-size="14.00">_id :BSON::ObjectId</text>
<text text-anchor="start" x="658" y="-165.8" font-family="Times,serif" font-size="14.00">_type :String</text>
<text text-anchor="start" x="658" y="-150.8" font-family="Times,serif" font-size="14.00">category :String</text>
<text text-anchor="start" x="658" y="-135.8" font-family="Times,serif" font-size="14.00">name :String</text>
<text text-anchor="start" x="658" y="-120.8" font-family="Times,serif" font-size="14.00">url :String</text>
<text text-anchor="start" x="658" y="-105.8" font-family="Times,serif" font-size="14.00">view_limit :Integer</text>
<text text-anchor="start" x="658" y="-90.8" font-family="Times,serif" font-size="14.00">view_span :Integer</text>
</g>
<!-- User -->
<g id="node6" class="node"><title>User</title>
<path fill="none" stroke="black" d="M812,-0.5C812,-0.5 970,-0.5 970,-0.5 976,-0.5 982,-6.5 982,-12.5 982,-12.5 982,-289.5 982,-289.5 982,-295.5 976,-301.5 970,-301.5 970,-301.5 812,-301.5 812,-301.5 806,-301.5 800,-295.5 800,-289.5 800,-289.5 800,-12.5 800,-12.5 800,-6.5 806,-0.5 812,-0.5"/>
<text text-anchor="middle" x="891" y="-286.3" font-family="Times,serif" font-size="14.00">User</text>
<polyline fill="none" stroke="black" points="800,-278.5 982,-278.5 "/>
<text text-anchor="start" x="808" y="-263.3" font-family="Times,serif" font-size="14.00">_id :BSON::ObjectId</text>
<text text-anchor="start" x="808" y="-248.3" font-family="Times,serif" font-size="14.00">confirmation_sent_at :Time</text>
<text text-anchor="start" x="808" y="-233.3" font-family="Times,serif" font-size="14.00">confirmation_token :String</text>
<text text-anchor="start" x="808" y="-218.3" font-family="Times,serif" font-size="14.00">confirmed_at :Time</text>
<text text-anchor="start" x="808" y="-203.3" font-family="Times,serif" font-size="14.00">current_sign_in_at :Time</text>
<text text-anchor="start" x="808" y="-188.3" font-family="Times,serif" font-size="14.00">current_sign_in_ip :String</text>
<text text-anchor="start" x="808" y="-173.3" font-family="Times,serif" font-size="14.00">email :String</text>
<text text-anchor="start" x="808" y="-158.3" font-family="Times,serif" font-size="14.00">encrypted_password :String</text>
<text text-anchor="start" x="808" y="-143.3" font-family="Times,serif" font-size="14.00">last_sign_in_at :Time</text>
<text text-anchor="start" x="808" y="-128.3" font-family="Times,serif" font-size="14.00">last_sign_in_ip :String</text>
<text text-anchor="start" x="808" y="-113.3" font-family="Times,serif" font-size="14.00">name :String</text>
<text text-anchor="start" x="808" y="-98.3" font-family="Times,serif" font-size="14.00">remember_created_at :Time</text>
<text text-anchor="start" x="808" y="-83.3" font-family="Times,serif" font-size="14.00">reset_password_sent_at :Time</text>
<text text-anchor="start" x="808" y="-68.3" font-family="Times,serif" font-size="14.00">reset_password_token :String</text>
<text text-anchor="start" x="808" y="-53.3" font-family="Times,serif" font-size="14.00">role_ids :Array</text>
<text text-anchor="start" x="808" y="-38.3" font-family="Times,serif" font-size="14.00">sign_in_count :Integer</text>
<text text-anchor="start" x="808" y="-23.3" font-family="Times,serif" font-size="14.00">subscribe :Mongoid::Boolean</text>
<text text-anchor="start" x="808" y="-8.3" font-family="Times,serif" font-size="14.00">unconfirmed_email :String</text>
</g>
<!-- Pdf -->
<g id="node7" class="node"><title>Pdf</title>
<path fill="none" stroke="black" d="M1012,-83C1012,-83 1120,-83 1120,-83 1126,-83 1132,-89 1132,-95 1132,-95 1132,-207 1132,-207 1132,-213 1126,-219 1120,-219 1120,-219 1012,-219 1012,-219 1006,-219 1000,-213 1000,-207 1000,-207 1000,-95 1000,-95 1000,-89 1006,-83 1012,-83"/>
<text text-anchor="middle" x="1066" y="-203.8" font-family="Times,serif" font-size="14.00">Pdf</text>
<polyline fill="none" stroke="black" points="1000,-196 1132,-196 "/>
<text text-anchor="start" x="1008" y="-180.8" font-family="Times,serif" font-size="14.00">_id :BSON::ObjectId</text>
<text text-anchor="start" x="1008" y="-165.8" font-family="Times,serif" font-size="14.00">_type :String</text>
<text text-anchor="start" x="1008" y="-150.8" font-family="Times,serif" font-size="14.00">category :String</text>
<text text-anchor="start" x="1008" y="-135.8" font-family="Times,serif" font-size="14.00">name :String</text>
<text text-anchor="start" x="1008" y="-120.8" font-family="Times,serif" font-size="14.00">url :String</text>
<text text-anchor="start" x="1008" y="-105.8" font-family="Times,serif" font-size="14.00">view_limit :Integer</text>
<text text-anchor="start" x="1008" y="-90.8" font-family="Times,serif" font-size="14.00">view_span :Integer</text>
</g>
</g>
</svg>
